<?xml version="1.0" encoding="UTF-8" standalone="no"?>
<svg
   xmlns:dc="http://purl.org/dc/elements/1.1/"
   xmlns:cc="http://creativecommons.org/ns#"
   xmlns:rdf="http://www.w3.org/1999/02/22-rdf-syntax-ns#"
   xmlns:svg="http://www.w3.org/2000/svg"
   xmlns="http://www.w3.org/2000/svg"
   xmlns:sodipodi="http://sodipodi.sourceforge.net/DTD/sodipodi-0.dtd"
   xmlns:inkscape="http://www.inkscape.org/namespaces/inkscape"
   version="1.1"
   id="Capa_1"
   x="0px"
   y="0px"
   viewBox="0 0 470 470"
   style="enable-background:new 0 0 470 470;"
   xml:space="preserve"
   sodipodi:docname="chordpro-doc.svg"
   inkscape:version="1.0 (4035a4fb49, 2020-05-01)"><metadata
   id="metadata73"><rdf:RDF><cc:Work
       rdf:about=""><dc:format>image/svg+xml</dc:format><dc:type
         rdf:resource="http://purl.org/dc/dcmitype/StillImage" /></cc:Work></rdf:RDF></metadata><defs
   id="defs71">
	
	
	
	
	
	
	
	
	
	
	
	
	
	
	
	
	
</defs><sodipodi:namedview
   inkscape:document-rotation="0"
   pagecolor="#ffffff"
   bordercolor="#666666"
   borderopacity="1"
   objecttolerance="10"
   gridtolerance="10"
   guidetolerance="10"
   inkscape:pageopacity="0"
   inkscape:pageshadow="2"
   inkscape:window-width="1918"
   inkscape:window-height="1054"
   id="namedview69"
   showgrid="false"
   inkscape:zoom="1.5839192"
   inkscape:cx="101.91757"
   inkscape:cy="235"
   inkscape:window-x="0"
   inkscape:window-y="1"
   inkscape:window-maximized="0"
   inkscape:current-layer="Capa_1" />
<path
   id="path2"
   d="m 305,367.5 c 0,-4.143 3.357,-7.5 7.5,-7.5 H 400 V 15 H 70 V 455 H 305 Z M 347.5,265 H 230.97 c -4.143,0 -7.5,-3.357 -7.5,-7.5 0,-4.143 3.357,-7.5 7.5,-7.5 H 347.5 c 4.143,0 7.5,3.357 7.5,7.5 0,4.143 -3.357,7.5 -7.5,7.5 z m 7.5,22.5 c 0,4.143 -3.357,7.5 -7.5,7.5 h -155 c -4.143,0 -7.5,-3.357 -7.5,-7.5 0,-4.143 3.357,-7.5 7.5,-7.5 h 155 c 4.143,0 7.5,3.357 7.5,7.5 z M 347.5,185 h -10 c -4.143,0 -7.5,-3.357 -7.5,-7.5 0,-4.143 3.357,-7.5 7.5,-7.5 h 10 c 4.143,0 7.5,3.357 7.5,7.5 0,4.143 -3.357,7.5 -7.5,7.5 z m 0,-30 h -10 c -4.143,0 -7.5,-3.357 -7.5,-7.5 0,-4.143 3.357,-7.5 7.5,-7.5 h 10 c 4.143,0 7.5,3.357 7.5,7.5 0,4.143 -3.357,7.5 -7.5,7.5 z M 300,87.5 c 0,-4.143 3.357,-7.5 7.5,-7.5 4.143,0 7.5,3.357 7.5,7.5 0,11.101 3.354,11.464 13.309,12.544 9.983,1.082 26.691,2.894 26.691,27.456 0,4.143 -3.357,7.5 -7.5,7.5 -4.143,0 -7.5,-3.357 -7.5,-7.5 0,-11.101 -3.354,-11.464 -13.309,-12.544 -3.421,-0.371 -7.634,-0.828 -11.691,-2.257 V 190 c 0,13.785 -12.337,25 -27.5,25 -15.163,0 -27.5,-11.215 -27.5,-25 0,-13.785 12.337,-25 27.5,-25 4.5,0 8.747,0.994 12.5,2.743 z M 122.5,110 h 155 c 4.143,0 7.5,3.357 7.5,7.5 0,4.143 -3.357,7.5 -7.5,7.5 h -155 c -4.143,0 -7.5,-3.357 -7.5,-7.5 0,-4.143 3.357,-7.5 7.5,-7.5 z m 0,30 h 155 c 4.143,0 7.5,3.357 7.5,7.5 0,4.143 -3.357,7.5 -7.5,7.5 h -155 c -4.143,0 -7.5,-3.357 -7.5,-7.5 0,-4.143 3.357,-7.5 7.5,-7.5 z m 0,30 h 121.008 c 4.143,0 7.5,3.357 7.5,7.5 0,4.143 -3.357,7.5 -7.5,7.5 H 122.5 c -4.143,0 -7.5,-3.357 -7.5,-7.5 0,-4.143 3.357,-7.5 7.5,-7.5 z m 0,80 h 10 c 4.143,0 7.5,3.357 7.5,7.5 0,4.143 -3.357,7.5 -7.5,7.5 h -10 c -4.143,0 -7.5,-3.357 -7.5,-7.5 0,-4.143 3.357,-7.5 7.5,-7.5 z m 0,30 h 10 c 4.143,0 7.5,3.357 7.5,7.5 0,4.143 -3.357,7.5 -7.5,7.5 h -10 c -4.143,0 -7.5,-3.357 -7.5,-7.5 0,-4.143 3.357,-7.5 7.5,-7.5 z M 170,252.699 V 330 c 0,13.785 -12.337,25 -27.5,25 -15.163,0 -27.5,-11.215 -27.5,-25 0,-13.785 12.337,-25 27.5,-25 4.5,0 8.747,0.994 12.5,2.743 V 227.5 c 0,-4.143 3.357,-7.5 7.5,-7.5 4.143,0 7.5,3.357 7.5,7.5 0,11.101 3.354,11.464 13.309,12.544 9.983,1.082 26.691,2.894 26.691,27.456 0,4.143 -3.357,7.5 -7.5,7.5 -4.143,0 -7.5,-3.357 -7.5,-7.5 0,-11.101 -3.354,-11.464 -13.309,-12.544 -3.42,-0.371 -7.633,-0.828 -11.691,-2.257 z m 15,64.801 c 0,-4.143 3.357,-7.5 7.5,-7.5 h 155 c 4.143,0 7.5,3.357 7.5,7.5 0,4.143 -3.357,7.5 -7.5,7.5 h -155 c -4.143,0 -7.5,-3.357 -7.5,-7.5 z"
   style="fill:#f2ebd9" /><polygon
   id="polygon4"
   points="320,375 320,444.394 389.394,375 "
   style="fill:#ffff00;fill-opacity:1" /><path
   id="path6"
   d="m 142.5,320 c -6.893,0 -12.5,4.486 -12.5,10 0,5.514 5.607,10 12.5,10 6.893,0 12.5,-4.486 12.5,-10 0,-5.514 -5.607,-10 -12.5,-10 z"
   style="fill:#00ff00;fill-opacity:1" /><path
   id="path8"
   d="m 195,267.5 c 0,4.143 3.357,7.5 7.5,7.5 4.143,0 7.5,-3.357 7.5,-7.5 0,-24.562 -16.708,-26.374 -26.691,-27.456 C 173.354,238.964 170,238.601 170,227.5 c 0,-4.143 -3.357,-7.5 -7.5,-7.5 -4.143,0 -7.5,3.357 -7.5,7.5 v 80.243 C 151.247,305.994 147,305 142.5,305 c -15.163,0 -27.5,11.215 -27.5,25 0,13.785 12.337,25 27.5,25 15.163,0 27.5,-11.215 27.5,-25 v -77.301 c 4.058,1.429 8.271,1.886 11.691,2.257 9.955,1.08 13.309,1.443 13.309,12.544 z M 155,330 c 0,5.514 -5.607,10 -12.5,10 -6.893,0 -12.5,-4.486 -12.5,-10 0,-5.514 5.607,-10 12.5,-10 6.893,0 12.5,4.486 12.5,10 z"
   style="fill:#082947" /><path
   id="path10"
   d="m 122.5,295 h 10 c 4.143,0 7.5,-3.357 7.5,-7.5 0,-4.143 -3.357,-7.5 -7.5,-7.5 h -10 c -4.143,0 -7.5,3.357 -7.5,7.5 0,4.143 3.357,7.5 7.5,7.5 z"
   style="fill:#082947" /><path
   id="path12"
   d="m 347.5,280 h -155 c -4.143,0 -7.5,3.357 -7.5,7.5 0,4.143 3.357,7.5 7.5,7.5 h 155 c 4.143,0 7.5,-3.357 7.5,-7.5 0,-4.143 -3.357,-7.5 -7.5,-7.5 z"
   style="fill:#082947" /><path
   id="path14"
   d="M 347.5,250 H 230.97 c -4.143,0 -7.5,3.357 -7.5,7.5 0,4.143 3.357,7.5 7.5,7.5 H 347.5 c 4.143,0 7.5,-3.357 7.5,-7.5 0,-4.143 -3.357,-7.5 -7.5,-7.5 z"
   style="fill:#082947" /><path
   id="path16"
   d="m 347.5,325 c 4.143,0 7.5,-3.357 7.5,-7.5 0,-4.143 -3.357,-7.5 -7.5,-7.5 h -155 c -4.143,0 -7.5,3.357 -7.5,7.5 0,4.143 3.357,7.5 7.5,7.5 z"
   style="fill:#082947" /><path
   id="path18"
   d="m 122.5,265 h 10 c 4.143,0 7.5,-3.357 7.5,-7.5 0,-4.143 -3.357,-7.5 -7.5,-7.5 h -10 c -4.143,0 -7.5,3.357 -7.5,7.5 0,4.143 3.357,7.5 7.5,7.5 z"
   style="fill:#082947" /><path
   id="path20"
   d="m 275,190 c 0,5.514 5.607,10 12.5,10 6.893,0 12.5,-4.486 12.5,-10 0,-5.514 -5.607,-10 -12.5,-10 -6.893,0 -12.5,4.486 -12.5,10 z"
   style="fill:#ff0000;fill-opacity:1" /><path
   id="path22"
   d="m 260,190 c 0,13.785 12.337,25 27.5,25 15.163,0 27.5,-11.215 27.5,-25 v -77.301 c 4.058,1.429 8.271,1.886 11.691,2.257 9.955,1.08 13.309,1.443 13.309,12.544 0,4.143 3.357,7.5 7.5,7.5 4.143,0 7.5,-3.357 7.5,-7.5 0,-24.562 -16.708,-26.374 -26.691,-27.456 C 318.354,98.964 315,98.601 315,87.5 c 0,-4.143 -3.357,-7.5 -7.5,-7.5 -4.143,0 -7.5,3.357 -7.5,7.5 v 80.243 C 296.247,165.994 292,165 287.5,165 272.337,165 260,176.215 260,190 Z m 40,0 c 0,5.514 -5.607,10 -12.5,10 -6.893,0 -12.5,-4.486 -12.5,-10 0,-5.514 5.607,-10 12.5,-10 6.893,0 12.5,4.486 12.5,10 z"
   style="fill:#082947" /><path
   id="path24"
   d="m 122.5,155 h 155 c 4.143,0 7.5,-3.357 7.5,-7.5 0,-4.143 -3.357,-7.5 -7.5,-7.5 h -155 c -4.143,0 -7.5,3.357 -7.5,7.5 0,4.143 3.357,7.5 7.5,7.5 z"
   style="fill:#082947" /><path
   id="path26"
   d="m 347.5,140 h -10 c -4.143,0 -7.5,3.357 -7.5,7.5 0,4.143 3.357,7.5 7.5,7.5 h 10 c 4.143,0 7.5,-3.357 7.5,-7.5 0,-4.143 -3.357,-7.5 -7.5,-7.5 z"
   style="fill:#082947" /><path
   id="path28"
   d="m 122.5,185 h 121.008 c 4.143,0 7.5,-3.357 7.5,-7.5 0,-4.143 -3.357,-7.5 -7.5,-7.5 H 122.5 c -4.143,0 -7.5,3.357 -7.5,7.5 0,4.143 3.357,7.5 7.5,7.5 z"
   style="fill:#082947" /><path
   id="path30"
   d="m 347.5,170 h -10 c -4.143,0 -7.5,3.357 -7.5,7.5 0,4.143 3.357,7.5 7.5,7.5 h 10 c 4.143,0 7.5,-3.357 7.5,-7.5 0,-4.143 -3.357,-7.5 -7.5,-7.5 z"
   style="fill:#082947" /><path
   id="path32"
   d="m 122.5,125 h 155 c 4.143,0 7.5,-3.357 7.5,-7.5 0,-4.143 -3.357,-7.5 -7.5,-7.5 h -155 c -4.143,0 -7.5,3.357 -7.5,7.5 0,4.143 3.357,7.5 7.5,7.5 z"
   style="fill:#082947" /><path
   id="path34"
   d="m 413.417,372.099 c 0.109,-0.14 0.218,-0.281 0.317,-0.429 0.03,-0.045 0.055,-0.093 0.084,-0.138 0.103,-0.161 0.204,-0.324 0.295,-0.493 0.016,-0.031 0.029,-0.063 0.045,-0.093 0.097,-0.187 0.188,-0.376 0.27,-0.571 0.008,-0.019 0.014,-0.039 0.021,-0.058 0.083,-0.207 0.16,-0.416 0.226,-0.631 0.007,-0.022 0.011,-0.045 0.017,-0.067 0.062,-0.21 0.118,-0.423 0.161,-0.642 0.012,-0.06 0.017,-0.122 0.028,-0.183 0.031,-0.18 0.063,-0.36 0.081,-0.544 0.025,-0.248 0.038,-0.498 0.038,-0.749 V 7.5 C 415,3.357 411.643,0 407.5,0 H 62.5 C 58.357,0 55,3.357 55,7.5 v 455 c 0,4.143 3.357,7.5 7.5,7.5 h 250 c 0.251,0 0.501,-0.013 0.749,-0.038 0.189,-0.019 0.374,-0.051 0.558,-0.083 0.056,-0.01 0.113,-0.015 0.169,-0.026 0.218,-0.043 0.432,-0.099 0.643,-0.162 0.022,-0.006 0.044,-0.01 0.066,-0.017 0.213,-0.065 0.422,-0.142 0.626,-0.225 0.021,-0.008 0.042,-0.015 0.063,-0.023 0.195,-0.081 0.384,-0.173 0.57,-0.27 0.031,-0.016 0.063,-0.029 0.094,-0.045 0.171,-0.091 0.335,-0.193 0.498,-0.298 0.044,-0.028 0.09,-0.052 0.133,-0.081 0.149,-0.1 0.29,-0.209 0.431,-0.319 0.053,-0.041 0.108,-0.078 0.16,-0.12 0.146,-0.12 0.284,-0.25 0.421,-0.381 0.04,-0.038 0.083,-0.071 0.122,-0.11 l 95,-95 c 0.039,-0.039 0.072,-0.082 0.11,-0.122 0.131,-0.137 0.261,-0.274 0.381,-0.421 0.044,-0.051 0.081,-0.107 0.123,-0.16 z M 70,15 h 330 v 345 h -87.5 c -4.143,0 -7.5,3.357 -7.5,7.5 V 455 H 70 Z m 250,360 h 69.394 L 320,444.394 Z"
   style="fill:#082947" />
<g
   id="g38">
</g>
<g
   id="g40">
</g>
<g
   id="g42">
</g>
<g
   id="g44">
</g>
<g
   id="g46">
</g>
<g
   id="g48">
</g>
<g
   id="g50">
</g>
<g
   id="g52">
</g>
<g
   id="g54">
</g>
<g
   id="g56">
</g>
<g
   id="g58">
</g>
<g
   id="g60">
</g>
<g
   id="g62">
</g>
<g
   id="g64">
</g>
<g
   id="g66">
</g>
<text
   transform="scale(1.1665484,0.85722974)"
   id="text932"
   y="117.2047"
   x="100.8555"
   style="font-style:normal;font-weight:normal;font-size:99.5454px;line-height:1.25;font-family:sans-serif;letter-spacing:12.4354px;fill:#000000;fill-opacity:1;stroke:none;stroke-width:1.16655"
   xml:space="preserve"><tspan
     style="font-style:normal;font-variant:normal;font-weight:bold;font-stretch:normal;font-size:99.5454px;font-family:'Inkpen2 Script';-inkscape-font-specification:'Inkpen2 Script Bold';fill:#0000ff;fill-opacity:1;stroke-width:1.16655"
     y="117.2047"
     x="100.8555"
     id="tspan930"
     sodipodi:role="line">Am</tspan></text></svg>
