<?xml version="1.0" encoding="UTF-8" standalone="no"?>
<!-- Created with Inkscape (http://www.inkscape.org/) -->

<svg
   width="109.90975mm"
   height="188.17355mm"
   viewBox="0 0 109.90975 188.17355"
   version="1.1"
   id="svg1"
   xmlns="http://www.w3.org/2000/svg"
   xmlns:svg="http://www.w3.org/2000/svg">
  <defs
     id="defs1" />
  <g
     id="layer1"
     transform="matrix(1,0,0,-1,-49.820121,242.54543)"
     style="fill:#000000">
    <g
       id="g1"
       style="fill:#000000">
      <path
         fill="currentColor"
         d="m 50.00625,109.32771 12.7,12.96459 22.754167,-23.018746 11.1125,-13.22917 0.79375,0.26458 -7.408333,25.664586 c -0.0037,21.1584 -0.173521,69.87141 -0.173521,69.87141 l -32.065702,-24.06475 -0.09682,15.63669 30.590913,22.10014 -30.697628,23.59403 -0.08306,15.21329 32.420453,-24.50279 c 0,0 0.105208,27.15659 0.10538,32.59157 H 120.1208 l 0.10802,-33.52951 31.81788,24.82919 -0.0676,-15.20195 -29.04534,-22.6412 28.80845,-22.06328 0.0294,-15.39931 -31.5321,24.15821 c 0.002,-26.19584 0.0579,-44.3967 -0.11868,-70.59174 l -7.9375,-25.664586 0.79376,-0.26458 11.11249,13.22917 22.75417,23.018746 12.7,-12.96459 -54.7687,-54.768746 z"
         id="path1"
         style="fill:#000000;fill-opacity:1;stroke:#000000;stroke-width:0.264583;stroke-opacity:1" />
    </g>
  </g>
</svg>
