<?xml version="1.0" encoding="UTF-8" standalone="no"?>
<!-- Created with Inkscape (http://www.inkscape.org/) -->

<svg
   width="109.90976mm"
   height="188.17354mm"
   viewBox="0 0 109.90976 188.17353"
   version="1.1"
   id="svg1"
   xmlns="http://www.w3.org/2000/svg"
   xmlns:svg="http://www.w3.org/2000/svg">
  <defs
     id="defs1" />
  <g
     id="layer1"
     transform="translate(-49.820121,-54.371872)">
    <g
       id="g1"
       transform="matrix(1,0,0,-1,0,296.9173)">
      <path
         fill="currentColor"
         d="m 50.00625,187.58959 12.7,-12.96459 22.754167,23.01875 11.1125,13.22917 0.79375,-0.26458 L 90.4875,184.94375 C 89.675337,163.57705 61.352084,146.951 91.310686,124.04399 117.09342,104.32994 91.094043,98.771792 90.760598,76.447295 L 90.4875,54.504167 h 28.575 l 0.20175,22.408687 c 0.86987,23.787996 28.67581,30.206876 -0.34026,54.548916 -27.057203,22.6987 -0.0881,22.52968 0.13851,53.48198 l -6.87917,25.66459 0.79375,0.26458 11.1125,-13.22917 22.75417,-23.01875 12.7,12.96459 -54.76875,54.76875 z"
         id="path1"
         style="fill:#000000;fill-opacity:1;stroke:#000000;stroke-width:0.264583;stroke-opacity:1" />
    </g>
  </g>
</svg>
