<?xml version="1.0" encoding="UTF-8" standalone="no"?>
<!-- Created with Inkscape (http://www.inkscape.org/) -->

<svg
   width="109.90975mm"
   height="188.17355mm"
   viewBox="0 0 109.90975 188.17355"
   version="1.1"
   id="svg1"
   xmlns="http://www.w3.org/2000/svg"
   xmlns:svg="http://www.w3.org/2000/svg">
  <defs
     id="defs1" />
  <g
     id="layer1"
     transform="translate(-49.820121,-54.371876)"
     style="fill:#000000">
    <g
       id="g1"
       style="fill:#000000">
      <path
         fill="currentColor"
         d="m 50.00625,109.32771 12.7,12.96459 22.754167,-23.018746 11.1125,-13.22917 0.79375,0.26458 -1.5875,25.664586 c -0.0037,21.1584 -0.173521,69.87141 -0.173521,69.87141 l -37.886535,-24.06475 -0.09682,15.63669 36.411746,22.10014 -36.518461,23.59403 -0.08306,15.21329 38.241286,-24.50279 c 0,0 0.105208,27.15659 0.10538,32.59157 H 113.7708 l 0.10802,-33.52951 38.16788,24.82919 -0.0676,-15.20195 -34.86617,-22.6412 34.62928,-22.06328 0.0294,-15.39931 -37.8821,24.15821 c 0.002,-26.19584 0.0579,-44.3967 -0.11868,-70.59174 l -1.5875,-25.664586 0.79376,-0.26458 11.11249,13.22917 22.75417,23.018746 12.7,-12.96459 -54.7687,-54.768746 z"
         id="path1"
         style="fill:#000000;fill-opacity:1;stroke:#000000;stroke-width:0.264583;stroke-opacity:1" />
    </g>
  </g>
</svg>
