<?xml version="1.0" encoding="UTF-8" standalone="no"?>
<svg
   viewBox="0 0 120 210"
   version="1.1"
   id="svg5"
   xmlns="http://www.w3.org/2000/svg"
   xmlns:svg="http://www.w3.org/2000/svg">
  <defs
     id="defs5" />
  <g
     id="g6"
     style="fill:#000000;stroke-width:0"
     transform="matrix(1,0,0,-1,0,210)" />
  <g
     stroke-width="1"
     stroke="#ff0000"
     id="g4"
     style="fill:#000000">
    <line
       x1="0"
       y1="215"
       x2="120"
       y2="146"
       id="line1"
       style="display:none" />
    <line
       x1="120"
       y1="215"
       x2="0"
       y2="146"
       id="line2"
       style="display:none" />
    <line
       x1="0"
       y1="195"
       x2="120"
       y2="125"
       id="line3"
       style="display:none" />
    <line
       x1="120"
       y1="195"
       x2="0"
       y2="125"
       id="line4"
       style="display:none" />
  </g>
  <g
     id="layer1"
     transform="matrix(1.091764,0,0,1.1160117,-54.47957,-56.871824)">
    <g
       id="g2">
      <path
         fill="currentColor"
         d="m 49.9005,181.7323 8.054908,-13.91253 c 14.827887,8.37488 37.742536,21.31722 37.742536,21.31722 L 94.971172,178.54538 C 94.159009,157.17868 64.142267,137.79095 96.602353,118.59221 137.05163,94.668213 96.160707,90.930283 94.971172,56.327363 l 0.726772,-5.367481 h 18.318976 c -0.2311,41.06872 44.24504,44.961031 2.83196,72.080478 -35.41487,23.19151 -3.30467,24.44098 -3.07806,55.39328 l 0.2461,10.83483 c 0,0 22.8699,-13.40341 37.74125,-21.31649 l 8.05619,13.96717 -38.35444,21.76836 38.35444,21.59504 -8.33081,13.8474 -46.44522,-26.16742 -46.805325,26.16742 -8.332505,-13.69866 38.651736,-21.78021 z"
         id="path1"
         style="fill:#000000;fill-opacity:1;stroke:#000000;stroke-width:0.264583;stroke-opacity:1" />
    </g>
  </g>
</svg>
