<?xml version="1.0" encoding="UTF-8" standalone="no"?>
<svg
   viewBox="0 0 120 210"
   version="1.1"
   id="svg5"
   xmlns="http://www.w3.org/2000/svg"
   xmlns:svg="http://www.w3.org/2000/svg">
  <g
     id="layer1"
     transform="matrix(1.091764,0,0,-1.1160117,-54.483183,263.77352)">
    <g
       id="g2"
       transform="matrix(1,0,0,-1,0,296.9173)">
      <path
         fill="currentColor"
         d="m 49.90381,118.27145 8.054907,13.64838 c 13.689416,-7.73186 19.365577,-10.93779 33.162792,-18.73055 l -0.95986,7.48708 c -0.812163,21.3667 -29.135416,37.99275 0.823186,60.89976 25.782735,19.71405 0.333445,25.2722 0,47.59669 l 0.136674,19.60691 h 27.478461 l 0.33843,-20.07247 c 0.86987,-23.78799 28.67581,-30.20687 -0.34026,-54.54891 -27.057204,-22.6987 -0.0881,-22.52968 0.13851,-53.48198 l -0.13668,-7.61856 c 0,0 15.38206,9.37525 33.16151,18.72982 L 159.81767,117.82045 121.46323,96.052095 159.81767,74.457178 151.48686,60.609653 105.04164,86.777077 58.236314,60.609653 49.90381,74.308312 88.555545,96.088522 Z"
         id="path1-5"
         style="display:inline;fill:#000000;fill-opacity:1;stroke:#000000;stroke-width:0.264583;stroke-opacity:1" />
    </g>
  </g>
</svg>
