<?xml version="1.0" encoding="UTF-8" standalone="no"?>
<svg
   viewBox="0 0 120 210"
   version="1.1"
   id="svg5"
   xmlns="http://www.w3.org/2000/svg"
   xmlns:svg="http://www.w3.org/2000/svg">
  <g
     id="layer1"
     transform="matrix(1.091764,0,0,1.1160117,-54.47957,-56.871824)">
    <g
       id="g2">
      <path
         fill="currentColor"
         d="m 49.9005,108.40361 8.054908,13.91253 c 14.827887,-8.37488 37.742536,-21.31722 37.742536,-21.31722 l -0.726772,10.59161 c -0.812163,21.3667 -30.828905,40.75443 1.631181,59.95317 40.449277,23.92399 -0.441646,27.66192 -1.631181,62.26484 l 0.726772,5.36749 h 18.318976 c -0.2311,-41.06872 44.24504,-44.96104 2.83196,-72.08048 -35.41487,-23.19151 -3.30467,-24.44098 -3.07806,-55.39328 l 0.2461,-10.83483 c 0,0 22.8699,13.40341 37.74125,21.31649 l 8.05619,-13.96717 -38.35444,-21.768362 38.35444,-21.59504 -8.33081,-13.8474 -46.44522,26.16742 -46.805325,-26.16742 -8.332505,13.69866 38.651736,21.78021 z"
         id="path1"
         style="fill:#000000;fill-opacity:1;stroke:#000000;stroke-width:0.264583;stroke-opacity:1" />
    </g>
  </g>
</svg>
