<?xml version="1.0" encoding="UTF-8" standalone="no"?>
<svg
   viewBox="0 0 120 210"
   version="1.1"
   id="svg5"
   xmlns="http://www.w3.org/2000/svg"
   xmlns:svg="http://www.w3.org/2000/svg">
  <defs
     id="defs5" />
  <g
     id="g6"
     style="fill:#000000;stroke-width:0" />
  <g
     stroke-width="1"
     stroke="#ff0000"
     id="g4"
     style="fill:#000000"
     transform="matrix(1,0,0,-1,0,210)">
    <line
       x1="0"
       y1="215"
       x2="120"
       y2="146"
       id="line1"
       style="display:none" />
    <line
       x1="120"
       y1="215"
       x2="0"
       y2="146"
       id="line2"
       style="display:none" />
    <line
       x1="0"
       y1="195"
       x2="120"
       y2="125"
       id="line3"
       style="display:none" />
    <line
       x1="120"
       y1="195"
       x2="0"
       y2="125"
       id="line4"
       style="display:none" />
  </g>
  <path
     d="M 45,0 V 19.34123 L 9.0971279,0.2655 0,15.55336 42.198573,39.86033 0,64.32195 8.7940578,79.84849 45,56.30764 v 75.71796 l -30,-30.7601 -15,15 60,60 60,-60 -15,-15 -30,30.7601 V 57.40793 L 111.20454,79.70095 120,64.11342 78.125999,39.81968 120,15.71937 110.90471,0.2655 75,18.82105 V 0 Z"
     id="path1" />
  <ellipse
     style="display:inline;fill:#000000;stroke:#00e900;stroke-width:0"
     id="path2"
     cx="60"
     cy="-193.7655"
     rx="16.234663"
     ry="16.234499"
     transform="scale(1,-1)" />
</svg>
