<?xml version="1.0" encoding="UTF-8" standalone="no"?>
<svg
   viewBox="0 0 120 210"
   version="1.1"
   id="svg5"
   xmlns="http://www.w3.org/2000/svg"
   xmlns:svg="http://www.w3.org/2000/svg">
  <g
     id="layer1"
     transform="matrix(1.091764,0,0,1.1160117,-54.68972,-57.928637)">
    <g
       id="g2"
       transform="matrix(1,0,0,-1,0,296.9173)">
      <path
         fill="currentColor"
         d="M 50.092987,191.24759 63.83222,177.80687 c 11.355222,11.1085 16.193353,15.84152 27.478466,26.88144 L 90.4875,184.94375 c -0.812163,-21.3667 -29.135416,-37.99275 0.823186,-60.89976 25.782734,-19.71405 0.333445,-25.272198 0,-47.596695 l 0,-19.606902 H 119.0625 l 0.20175,20.072461 c 0.86987,23.787996 28.67581,30.206876 -0.34026,54.548916 -27.057203,22.6987 -0.0881,22.52968 0.13851,53.48198 l -0.27335,19.74456 c 0,0 16.14994,-15.79905 27.47847,-26.88144 l 13.73923,13.44072 -54.95693,53.76287 z"
         id="path1"
         style="display:inline;fill:#000000;fill-opacity:1;stroke:#000000;stroke-width:0.264583;stroke-opacity:1" />
    </g>
  </g>
</svg>
